<svg width="90" height="89" viewBox="0 0 90 89" fill="none" xmlns="http://www.w3.org/2000/svg">
<circle cx="47" cy="40" r="40" fill="#2B5624"/>
<g style="mix-blend-mode:color-dodge">
<path d="M85.0001 61C85.0001 83.0914 70 72 58.5 80.5C36.4086 80.5 37.0001 94.0914 37.0001 72C37.0001 49.9086 54.9087 32 77.0001 32C99.0915 32 85.0001 38.9086 85.0001 61Z" fill="#2B5624"/>
</g>
<path d="M27.1535 13.9039C42.1501 2.60323 30.003 32.9457 41.3037 47.9423C52.6044 62.9388 83.0735 56.9104 68.077 68.2111C53.0804 79.5118 31.7623 76.5158 20.4616 61.5192C9.16093 46.5227 12.157 25.2046 27.1535 13.9039Z" fill="#383838"/>
<path d="M53.4 59H38.4V57.8H41.4V32.6H37.8V31.4H41.4C41.4 22.6 45.36 18.2 53.28 18.2C56.08 18.2 58.22 18.8 59.7 20C61.18 21.16 61.92 22.52 61.92 24.08C61.92 25.04 61.6 25.8 60.96 26.36C60.36 26.88 59.64 27.14 58.8 27.14C56.64 27.14 55.56 25.86 55.56 23.3C55.56 20.7 54.8 19.4 53.28 19.4C52.16 19.4 51.4 20.38 51 22.34C50.6 24.26 50.4 27.28 50.4 31.4H58.2V32.6H50.4V57.8H53.4V59Z" fill="white"/>
</svg>
